<?xml version="1.0" encoding="UTF-8"?>
<svg width="745px" height="199px" viewBox="0 0 745 199" version="1.1" xmlns="http://www.w3.org/2000/svg" xmlns:xlink="http://www.w3.org/1999/xlink">
    <!-- Generator: Sketch 54.1 (76490) - https://sketchapp.com -->
    <title>Group 65</title>
    <desc>Created with Sketch.</desc>
    <defs>
        <polygon id="path-1" points="0 0.805544554 745.006517 0.805544554 745.006517 119.900198 0 119.900198"></polygon>
        <polygon id="path-3" points="0 199.5 745 199.5 745 1.5 0 1.5"></polygon>
    </defs>
    <g id="Page-1" stroke="none" stroke-width="1" fill="none" fill-rule="evenodd">
        <g id="Side-Menu" transform="translate(-121.000000, -78.000000)">
            <g id="Group-65" transform="translate(121.000000, 77.000000)">
                <path d="M67.4796425,128.311033 C67.4796425,127.002347 67.2517742,125.889671 66.7912902,124.9777 C66.3308063,124.070423 65.5878606,123.360329 64.5683871,122.856808 C63.8005183,122.502347 62.8534406,122.233568 61.7319011,122.055164 C60.6056144,121.880282 59.2229758,121.794601 57.5899193,121.794601 L31.5963136,121.794601 L31.5963136,137.187793 L57.5899193,137.187793 C60.7563398,137.187793 63.0836825,136.860329 64.5683871,136.197183 L64.5683871,136.2723 C65.5878606,135.769953 66.3308063,135.039906 66.7912902,134.073944 C67.2517742,133.120892 67.4796425,131.978873 67.4796425,130.669014 L67.4796425,128.311033 Z M57.8189745,143.483568 L31.5963136,143.483568 L31.5963136,162.823944 C31.5963136,163.274648 31.3375881,163.5 30.827258,163.5 L25.6895391,163.5 C25.230242,163.5 25,163.274648 25,162.823944 L25,116.257042 C25,115.751174 25.230242,115.5 25.6895391,115.5 L57.8189745,115.5 C60.6815705,115.5 63.1620123,115.774648 65.2567394,116.330986 C67.355027,116.890845 69.0153801,117.747653 70.2413593,118.913146 C71.4174922,120.071596 72.33846,121.656103 73.0042628,123.647887 C73.6665052,125.64554 74,128.06338 74,130.890845 C74,139.285211 68.6059292,143.483568 57.8189745,143.483568 L57.8189745,143.483568 Z" id="Fill-1" fill="#163380"></path>
                <path d="M78.3842973,146.212441 L104.30616,146.212441 L91.458926,121.036385 L78.3842973,146.212441 Z M113.767467,163.5 L113.305533,163.5 C113.305533,163.451878 113.27815,163.374413 113.229338,163.274648 L113.305533,163.348592 L107.538505,152.203052 L75.1507613,152.203052 L69.4623097,163.348592 L69.4623097,163.274648 L69.4623097,163.5 L69.0777618,163.5 L63.6905195,163.5 C63.2285858,163.5 63,163.274648 63,162.823944 L63,162.739437 C63,162.639671 63.0511937,162.54108 63.1535811,162.440141 L63.1535811,162.591549 L87.3062849,115.647887 C87.4062911,115.549296 87.5634438,115.5 87.7705997,115.5 L95.2305909,115.5 C95.3817908,115.5 95.4734632,115.50939 95.4972743,115.538732 C95.5234664,115.559859 95.5639451,115.602113 95.6127577,115.647887 L119.923805,162.591549 L119.923805,162.440141 C119.973808,162.54108 120,162.639671 120,162.739437 L120,162.823944 C120,163.274648 119.794035,163.5 119.384485,163.5 L113.767467,163.5 Z" id="Fill-3" fill="#163380"></path>
                <path d="M141.927968,137.568709 L173.696513,162.590398 C173.644755,162.590398 173.618876,162.659645 173.618876,162.82396 C173.618876,163.27348 173.390673,163.5 172.933089,163.5 L164.954193,163.5 L136.151121,140.597978 L129.159148,140.597978 L129.159148,162.82396 C129.159148,163.27348 128.927415,163.5 128.475713,163.5 L123.686964,163.5 C123.230556,163.5 123,163.27348 123,162.82396 L123,116.258197 C123,115.751168 123.230556,115.5 123.686964,115.5 L128.475713,115.5 C128.927415,115.5 129.159148,115.751168 129.159148,116.258197 L129.159148,134.835208 L135.999377,134.835208 L165.565873,115.5 L173.240105,115.5 C173.745918,115.5 174,115.751168 174,116.258197 C174,116.356787 173.972945,116.483544 173.925893,116.634949 L141.927968,137.568709 Z" id="Fill-5" fill="#163380"></path>
                <path d="M244.719544,163.048133 C244.618884,163.347422 244.415197,163.5 244.108481,163.5 L236.916649,163.5 C236.712962,163.5 236.433483,163.174891 236.074662,162.511761 L221.001776,123.608957 L206.234423,162.590398 C205.876785,163.197191 205.568885,163.5 205.316644,163.5 L197.741122,163.5 C197.331378,163.5 197.104006,163.347422 197.053084,163.048133 L178,116.483544 L178,116.258197 C178,115.751168 178.25461,115.5 178.765013,115.5 L184.348659,115.5 C184.606822,115.5 184.911169,115.875578 185.267622,116.634949 L201.41342,157.206727 L217.175528,116.562181 C217.531981,115.853278 217.838697,115.5 218.094491,115.5 L223.756296,115.5 C224.013274,115.5 224.316437,115.853278 224.671707,116.562181 L240.513157,157.206727 L256.810537,116.634949 C257.168174,115.875578 257.473706,115.5 257.7295,115.5 L263.391306,115.5 C263.799865,115.5 264,115.751168 264,116.258197 L264,116.483544 L244.719544,163.048133 Z" id="Fill-7" fill="#163380"></path>
                <path d="M315.497599,163.5 C315.086901,163.5 314.882144,163.274648 314.882144,162.823944 L314.882144,141.962441 L275.193604,141.962441 L275.193604,162.823944 C275.193604,163.274648 274.965176,163.5 274.505952,163.5 L269.687652,163.5 C269.229612,163.5 269,163.274648 269,162.823944 L269,116.257042 C269,115.75 269.229612,115.5 269.687652,115.5 L274.505952,115.5 C274.965176,115.5 275.193604,115.75 275.193604,116.257042 L275.193604,135.669014 L314.882144,135.669014 L314.882144,116.257042 C314.882144,115.75 315.086901,115.5 315.497599,115.5 L320.388096,115.5 C320.796427,115.5 321,115.75 321,116.257042 L321,162.823944 C321,163.274648 320.796427,163.5 320.388096,163.5 L315.497599,163.5 Z" id="Fill-9" fill="#163380"></path>
                <path d="M327.685411,163.5 C327.225324,163.5 327,163.274648 327,162.823944 L327,116.257042 C327,115.75 327.225324,115.5 327.685411,115.5 L368.387731,115.5 C368.79591,115.5 369,115.75 369,116.257042 L369,121.035211 C369,121.537559 368.79591,121.794601 368.387731,121.794601 L333.171058,121.794601 L333.171058,135.669014 L367.243413,135.669014 C367.649233,135.669014 367.853323,135.921362 367.853323,136.430751 L367.853323,141.204225 C367.853323,141.712441 367.649233,141.962441 367.243413,141.962441 L333.171058,141.962441 L333.171058,157.28169 L368.387731,157.28169 C368.79591,157.28169 369,157.50939 369,157.96831 L369,162.823944 C369,163.274648 368.79591,163.5 368.387731,163.5 L327.685411,163.5 Z" id="Fill-11" fill="#163380"></path>
                <path d="M373.685469,163.5 C373.230063,163.5 373,163.274648 373,162.823944 L373,116.257042 C373,115.75 373.230063,115.5 373.685469,115.5 L414.394758,115.5 C414.794713,115.5 415,115.75 415,116.257042 L415,121.035211 C415,121.537559 414.794713,121.794601 414.394758,121.794601 L379.172758,121.794601 L379.172758,135.669014 L413.250344,135.669014 C413.653839,135.669014 413.859125,135.921362 413.859125,136.430751 L413.859125,141.204225 C413.859125,141.712441 413.653839,141.962441 413.250344,141.962441 L379.172758,141.962441 L379.172758,157.28169 L414.394758,157.28169 C414.794713,157.28169 415,157.50939 415,157.96831 L415,162.823944 C415,163.274648 414.794713,163.5 414.394758,163.5 L373.685469,163.5 Z" id="Fill-13" fill="#163380"></path>
                <path d="M419.695543,163.5 C419.230653,163.5 419,163.274648 419,162.823944 L419,116.257042 C419,115.75 419.230653,115.5 419.695543,115.5 L424.56076,115.5 C425.023261,115.5 425.257498,115.75 425.257498,116.257042 L425.257498,157.28169 L459.311627,157.28169 C459.769347,157.28169 460,157.50939 460,157.96831 L460,162.823944 C460,163.274648 459.769347,163.5 459.311627,163.5 L419.695543,163.5 Z" id="Fill-15" fill="#163380"></path>
                <path d="M512.86135,160.774648 C511.632576,161.728873 510.034578,162.428404 508.059043,162.85446 C506.093006,163.285211 503.757743,163.5 501.044945,163.5 L477.262545,163.5 C472.459051,163.5 468.719307,162.413146 466.064682,160.239437 C462.942293,157.812207 461.388221,154.275822 461.388221,149.625587 C461.388221,149.171362 461.587674,148.943662 461.997265,148.943662 L466.831627,148.943662 C467.291081,148.943662 467.524963,149.171362 467.524963,149.625587 C467.571265,151.140845 467.855011,152.429577 468.369077,153.492958 C468.880769,154.551643 469.724883,155.36385 470.897857,155.914319 C471.713477,156.318075 472.790286,156.651408 474.117598,156.907277 C475.44966,157.15493 477.009667,157.28169 478.797621,157.28169 L500.814624,157.28169 C502.551527,157.28169 504.00706,157.15493 505.188344,156.907277 C506.360131,156.651408 507.334839,156.296948 508.101783,155.840376 C509.126354,155.234742 509.837499,154.402582 510.249465,153.339202 C510.659056,152.279343 510.863258,151.014085 510.863258,149.546948 C510.863258,146.463615 509.458776,144.36385 506.642689,143.257042 C505.519579,142.745305 504.037927,142.392019 502.197736,142.196009 C500.356357,141.992958 498.207488,141.887324 495.747567,141.887324 L493.906188,141.887324 C493.244907,141.887324 492.454218,141.919014 491.532935,141.963615 L490.306536,141.963615 L488.923424,141.963615 C488.822511,141.963615 488.690729,141.981221 488.541139,142.003521 C488.389175,142.026995 488.206343,142.036385 488.002141,142.036385 L487.009625,142.036385 C485.929254,142.090376 484.987789,142.115023 484.170981,142.115023 L482.177638,142.115023 C475.624181,142.115023 470.744705,141.359155 467.524963,139.839202 C463.177362,137.82277 461,134.073944 461,128.615023 C461,119.869718 465.989887,115.5 475.960165,115.5 L500.200831,115.5 C511.13988,115.5 516.612966,120.125587 516.612966,129.374413 C516.612966,129.780516 516.438445,129.981221 516.078717,129.981221 L511.095953,129.981221 C510.686362,129.981221 510.479785,129.780516 510.479785,129.374413 C510.426361,127.911972 510.141428,126.629108 509.630923,125.548122 C509.126354,124.463615 508.279866,123.637324 507.105705,123.080986 C505.362865,122.221831 502.759291,121.794601 499.279548,121.794601 L475.805826,121.794601 C474.222074,121.794601 472.903072,121.916667 471.859505,122.170188 C470.808815,122.42723 469.977761,122.75 469.365155,123.158451 C467.928618,124.070423 467.213912,125.913146 467.213912,128.693662 C467.213912,131.470657 468.621955,133.41784 471.438042,134.534038 C473.7923,135.49061 477.390765,135.974178 482.25362,135.974178 L484.625686,135.974178 C485.702495,135.974178 486.97757,135.950704 488.46397,135.899061 C488.617121,135.899061 488.782145,135.88615 488.962603,135.861502 C489.138311,135.833333 489.333015,135.821596 489.537217,135.821596 L490.533295,135.821596 C491.454578,135.769953 492.270199,135.746479 492.990841,135.746479 L494.677882,135.746479 C498.154063,135.746479 501.169603,135.950704 503.725688,136.356808 C506.282961,136.755869 508.430643,137.340376 510.173483,138.096244 C514.722911,140.32277 517,144.190141 517,149.698357 C517,154.807512 515.622824,158.496479 512.86135,160.774648" id="Fill-17" fill="#163380"></path>
                <path d="M522.503589,163.5 C522.168237,163.5 522,163.317924 522,162.939599 L522,158.988443 C522,158.662451 522.168237,158.5 522.503589,158.5 L526.495289,158.5 C526.830642,158.5 527,158.662451 527,158.988443 L527,162.939599 C527,163.317924 526.830642,163.5 526.495289,163.5 L522.503589,163.5 Z" id="Fill-19" fill="#163380"></path>
                <path d="M588.923592,149.236521 C588.97851,149.289929 589,149.389624 589,149.543913 C589,154.709054 587.353643,158.467786 584.062124,160.820109 C581.340084,162.609868 577.200912,163.5 571.64819,163.5 L554.137594,163.5 C550.742208,163.5 547.824372,163.281621 545.382893,162.847236 C542.934251,162.415226 540.916599,161.709054 539.323967,160.742964 C537.887733,159.767379 536.68908,158.557986 535.739948,157.094608 C534.782459,155.640726 534.10553,153.865209 533.692449,151.764496 C533.234,149.261445 533,144.276704 533,136.813835 C533,128.122584 534.59502,122.215666 537.781478,119.099017 L537.70507,119.099017 C540.842579,116.034588 546.729587,114.5 555.367288,114.5 L571.567006,114.5 C577.329851,114.5 581.661237,115.653611 584.567134,117.948966 C587.474225,120.252628 588.923592,123.724144 588.923592,128.378942 L588.923592,128.535605 C588.923592,128.991353 588.719439,129.225161 588.307551,129.225161 L583.453247,129.225161 C582.985247,129.225161 582.756023,128.991353 582.756023,128.535605 L582.756023,128.378942 C582.756023,123.31943 579.029932,120.789081 571.567006,120.789081 L554.910033,120.789081 C552.076962,120.789081 549.726218,120.969481 547.850637,121.326721 C545.970281,121.683961 544.492261,122.142082 543.412996,122.705832 C541.462201,123.883181 540.199079,126.053917 539.630794,129.225161 C539.427834,130.095117 539.297702,131.537131 539.248753,133.560699 C539.193834,135.575958 539.173539,138.145473 539.173539,141.260936 C539.173539,144.635131 539.362171,147.406409 539.751375,149.585453 C540.133416,151.753815 540.688569,153.301458 541.407283,154.222448 C543.205262,156.270939 547.270413,157.286877 553.593186,157.286877 L571.567006,157.286877 C575.217883,157.286877 577.919626,156.856053 579.672238,155.987284 C581.777043,155.012886 582.832431,152.945405 582.832431,149.7706 L582.832431,149.543913 C582.832431,149.085792 583.062849,148.850797 583.528461,148.850797 L588.383959,148.850797 L588.465143,148.850797 C588.512898,148.850797 588.543939,148.880468 588.543939,148.925568 L588.923592,149.236521 Z" id="Fill-21" fill="#163380"></path>
                <path d="M713.572768,163.5 C713.118626,163.5 712.88919,163.274648 712.88919,162.823944 L712.88919,120.579812 L711.433334,120.579812 L686.525307,163.347418 C686.417685,163.451878 686.248565,163.5 685.987196,163.5 L682.701764,163.5 C682.600055,163.5 682.499529,163.475352 682.399002,163.422535 L657.719229,120.579812 L656.341429,120.579812 L656.341429,162.823944 C656.341429,163.274648 656.11081,163.5 655.649572,163.5 L650.684761,163.5 C650.228254,163.5 650,163.274648 650,162.823944 L650,116.257042 C650,115.75 650.228254,115.5 650.684761,115.5 L661.694154,115.5 C661.843169,115.5 661.966166,115.519953 662.071422,115.571596 L684.461564,154.776995 L707.536465,115.646714 C707.641722,115.549296 707.817939,115.5 708.074576,115.5 L718.465437,115.5 C718.81787,115.5 719,115.75 719,116.257042 L719,162.823944 C719,163.274648 718.81787,163.5 718.465437,163.5 L713.572768,163.5 Z" id="Fill-23" fill="#163380"></path>
                <g id="Group-27" transform="translate(0.000000, 0.500000)">
                    <mask id="mask-2" fill="white">
                        <use xlink:href="#path-1"></use>
                    </mask>
                    <g id="Clip-26"></g>
                    <path d="M0,61.2380198 C91.8053651,51.2388119 165.791987,-0.437227723 258.904629,0.828118812 C294.71026,1.31287129 323.426524,4.21782178 356.05159,15.8269307 C403.874927,32.8384158 442.291559,53.1112871 493.270594,52.6586139 C564.211641,52.0277228 702.956984,47.5877228 745.006517,119.900198 C699.444863,51.8530693 563.794829,60.3516832 493.417425,61.9449505 C440.890737,63.1378218 401.479438,42.4467327 352.237517,25.1477228 C320.768159,14.089901 293.336673,11.1291089 258.715168,10.1108911 C166.388787,7.39841584 92.046927,58.2320792 0,61.2380198 C32.2224635,57.7271287 16.2296444,60.7069307 0,61.2380198" id="Fill-25" fill="#163380" mask="url(#mask-2)"></path>
                </g>
                <path d="M102,60.8781194 L113.220027,67.3666015 C113.220027,67.3666015 385.597616,66.8223985 478,82.5 C478,82.5 232.85413,49.5265722 102,60.8781194" id="Fill-28" fill="#E7232D"></path>
                <path d="M33.9711732,188.147062 C34.7956183,187.558629 35.2084174,186.629952 35.2084174,185.357537 C35.2084174,184.089783 34.8820986,183.150619 34.230614,182.544707 C33.5583742,181.880535 32.2542519,181.548448 30.3170943,181.548448 L28.7627558,181.548448 L28.7627558,188.857844 L29.8570193,188.857844 C31.9671375,188.857844 33.3381378,188.62014 33.9711732,188.147062 M38,185.131485 C38,188.260088 36.5609686,190.157059 33.6829057,190.820066 C32.7247045,191.03097 31.4298069,191.133509 29.7993658,191.133509 L28.7627558,191.133509 L28.7627558,198.5 L26,198.5 L26,179.5 L30.5465552,179.5 C32.0236379,179.5 33.194004,179.618852 34.0576535,179.855391 C34.921303,180.093095 35.6777169,180.505581 36.3303546,181.092849 C37.4430672,182.059978 38,183.406967 38,185.131485" id="Fill-30" fill="#163380"></path>
                <path d="M57.8042935,191.474486 L54.9858844,182.088102 L52.1957065,191.474486 L57.8042935,191.474486 Z M58.4500809,193.609292 L51.5510954,193.609292 L49.8772239,198.5 L47,198.5 L53.4296427,179.5 L56.5715336,179.5 L63,198.5 L60.1521835,198.5 L58.4500809,193.609292 Z" id="Fill-32" fill="#163380"></path>
                <path d="M76.6097389,188.772783 L84.0656316,179.5 L87.5601035,179.5 L79.7795813,188.629462 L88,198.5 L84.3302752,198.5 L76.6097389,188.772783 Z M73,198.5 L75.7887556,198.5 L75.7887556,179.5 L73,179.5 L73,198.5 Z" id="Fill-34" fill="#163380"></path>
                <mask id="mask-4" fill="white">
                    <use xlink:href="#path-3"></use>
                </mask>
                <g id="Clip-37"></g>
                <polygon id="Fill-36" fill="#163380" mask="url(#mask-4)" points="99 198.5 102 198.5 102 179.5 99 179.5"></polygon>
                <path d="M125,194.096222 C125,195.661747 124.437464,196.955726 123.311223,197.972255 C122.184983,198.991145 120.698113,199.5 118.854114,199.5 C117.864423,199.5 116.809376,199.394923 115.693639,199.183589 C114.576736,198.972255 113.679245,198.70307 113,198.376033 L113.75744,195.927391 C115.659794,196.677096 117.243532,197.050177 118.506322,197.050177 C119.766777,197.050177 120.717954,196.77745 121.358685,196.228453 C122.000584,195.681818 122.320366,194.986423 122.320366,194.141086 C122.320366,193.294569 121.970239,192.5732 121.272321,191.978158 C120.573235,191.383117 119.66524,190.811688 118.549504,190.263872 C117.432601,189.716057 116.678662,189.327627 116.291188,189.097403 C115.902548,188.864817 115.455553,188.520071 114.951371,188.058442 C113.981521,187.233176 113.496012,186.041913 113.496012,184.484652 C113.496012,182.930933 114.048045,181.710153 115.154445,180.825856 C116.262011,179.94392 117.617001,179.5 119.219413,179.5 C120.820657,179.5 122.466252,179.806966 124.155028,180.422078 L123.398755,182.727863 C121.922389,182.209563 120.616417,181.949823 119.48084,181.949823 C118.344096,181.949823 117.509628,182.175325 116.976269,182.626328 C116.441743,183.078512 116.17448,183.670012 116.17448,184.399646 C116.17448,185.12928 116.484925,185.749115 117.106983,186.257969 C117.729041,186.768005 118.543669,187.285124 119.554367,187.81523 C120.562731,188.342975 121.306166,188.75974 121.781171,189.067887 C122.256176,189.374852 122.777864,189.769185 123.339234,190.249705 C124.445633,191.248524 125,192.531877 125,194.096222" id="Fill-38" fill="#163380" mask="url(#mask-4)"></path>
                <polygon id="Fill-39" fill="#163380" mask="url(#mask-4)" points="139.106177 181.919135 134 181.919135 134 179.5 147 179.5 147 181.919135 141.893823 181.919135 141.893823 198.5 139.106177 198.5"></polygon>
                <path d="M166.804293,191.474486 L163.985884,182.088102 L161.196883,191.474486 L166.804293,191.474486 Z M167.450081,193.609292 L160.552272,193.609292 L158.8784,198.5 L156,198.5 L162.429643,179.5 L165.570357,179.5 L172,198.5 L169.152184,198.5 L167.450081,193.609292 Z" id="Fill-40" fill="#163380" mask="url(#mask-4)"></path>
                <path d="M197,198.5 L194.065739,198.5 L184.605566,183.112167 C184.683541,183.852079 184.724328,184.647921 184.724328,185.502024 L184.724328,198.5 L182,198.5 L182,179.5 L184.933061,179.5 L194.395633,194.887833 C194.315259,194.149086 194.275672,193.353244 194.275672,192.499141 L194.275672,179.5 L197,179.5 L197,198.5 Z" id="Fill-41" fill="#163380" mask="url(#mask-4)"></path>
                <path d="M213,180.135997 C213,182.145735 212.136967,183.933345 210.413231,185.5 L208,185.5 C209.588633,183.685359 210.384114,182.038784 210.384114,180.566152 C210.384114,179.935024 210.218728,179.247482 209.890287,178.5 L212.650594,178.5 C212.882367,178.998321 213,179.544829 213,180.135997" id="Fill-42" fill="#163380" mask="url(#mask-4)"></path>
                <path d="M235,194.096222 C235,195.661747 234.437518,196.955726 233.311388,197.972255 C232.185257,198.991145 230.698532,199.5 228.854712,199.5 C227.865117,199.5 226.810172,199.394923 225.694544,199.183589 C224.57775,198.972255 223.680346,198.70307 223,198.376033 L223.758534,195.927391 C225.660702,196.677096 227.24312,197.050177 228.505786,197.050177 C229.767286,197.050177 230.71837,196.77745 231.359039,196.228453 C232.000875,195.681818 232.319459,194.986423 232.319459,194.141086 C232.319459,193.294569 231.969367,192.5732 231.271516,191.978158 C230.572498,191.383117 229.664592,190.811688 228.548964,190.263872 C227.43217,189.716057 226.678304,189.327627 226.292035,189.097403 C225.902266,188.864817 225.456482,188.520071 224.952349,188.058442 C223.981426,187.233176 223.497131,186.041913 223.497131,184.484652 C223.497131,182.930933 224.047943,181.710153 225.155402,180.825856 C226.262861,179.94392 227.617719,179.5 229.218808,179.5 C230.821064,179.5 232.465331,179.806966 234.15511,180.422078 L233.398911,182.727863 C231.922688,182.209563 230.615676,181.949823 229.481377,181.949823 C228.344744,181.949823 227.510357,182.175325 226.975883,182.626328 C226.441408,183.078512 226.175338,183.670012 226.175338,184.399646 C226.175338,185.12928 226.485753,185.749115 227.106584,186.257969 C227.728581,186.768005 228.544296,187.285124 229.553729,187.81523 C230.563163,188.342975 231.305358,188.75974 231.781484,189.067887 C232.256443,189.374852 232.776913,189.769185 233.339395,190.249705 C234.446854,191.248524 235,192.531877 235,194.096222" id="Fill-43" fill="#163380" mask="url(#mask-4)"></path>
                <path d="M268.571347,190.982885 L269.084336,188.193978 L265.914454,188.193978 L265.400256,190.982885 L268.571347,190.982885 Z M276,194.067768 L271.349228,194.067768 L270.383745,199.5 L267.032382,199.5 L267.996655,194.067768 L264.827984,194.067768 L263.860081,199.5 L260.509928,199.5 L261.476621,194.067768 L259,194.067768 L259,190.982885 L262.048893,190.982885 L262.563092,188.193978 L259.180272,188.193978 L259.180272,185.137971 L263.106327,185.137971 L264.162551,179.5 L267.484877,179.5 L266.45769,185.137971 L269.627571,185.137971 L270.685005,179.5 L274.006121,179.5 L272.980144,185.137971 L276,185.137971 L276,188.193978 L272.435699,188.193978 L271.92392,190.982885 L276,190.982885 L276,194.067768 Z" id="Fill-44" fill="#163380" mask="url(#mask-4)"></path>
                <polygon id="Fill-45" fill="#163380" mask="url(#mask-4)" points="294 198.5 289.911233 198.5 289.911233 183.258921 286.294973 184.770192 285 181.949542 290.82443 179.5 294 179.5"></polygon>
                <path d="M328.804293,191.474486 L325.985884,182.088102 L323.196883,191.474486 L328.804293,191.474486 Z M329.450081,193.609292 L322.552272,193.609292 L320.877224,198.5 L318,198.5 L324.429643,179.5 L327.571534,179.5 L334,198.5 L331.152184,198.5 L329.450081,193.609292 Z" id="Fill-46" fill="#163380" mask="url(#mask-4)"></path>
                <path d="M344,191.942236 L344,179.5 L346.928073,179.5 L346.928073,191.530145 C346.928073,193.568908 347.190817,194.931698 347.719972,195.618515 C348.289455,196.540296 349.372207,196.999379 350.968226,196.999379 C352.564246,196.999379 353.656774,196.540296 354.247032,195.618515 C354.79574,194.89314 355.070705,193.529145 355.070705,191.530145 L355.070705,179.5 L358,179.5 L358,191.942236 C358,194.236446 357.541725,196.010121 356.626397,197.264466 C355.506983,198.735701 353.648219,199.48156 351.043994,199.499635 C348.442214,199.518914 346.550454,198.775464 345.371159,197.264466 C344.457053,196.010121 344,194.236446 344,191.942236" id="Fill-47" fill="#163380" mask="url(#mask-4)"></path>
                <polygon id="Fill-48" fill="#163380" mask="url(#mask-4)" points="373.106177 181.919135 368 181.919135 368 179.5 381 179.5 381 181.919135 375.892647 181.919135 375.892647 198.5 373.106177 198.5"></polygon>
                <path d="M394.945723,194.948642 C395.705451,196.350059 396.885578,197.050177 398.484944,197.050177 C400.084311,197.050177 401.265596,196.350059 402.025324,194.948642 C402.787369,193.546045 403.168391,191.725502 403.168391,189.485832 C403.168391,187.248524 402.787369,185.431523 402.025324,184.040732 C401.265596,182.646399 400.084311,181.949823 398.484944,181.949823 C396.885578,181.949823 395.705451,182.646399 394.945723,184.040732 C394.184836,185.431523 393.803814,187.248524 393.803814,189.485832 C393.803814,191.725502 394.184836,193.546045 394.945723,194.948642 M395.031424,180.337072 C396.025093,179.77863 397.185531,179.5 398.513897,179.5 C399.84458,179.5 401.009651,179.77863 402.012585,180.337072 C403.014361,180.894333 403.794935,181.651122 404.351992,182.614522 C405.449892,184.495277 406,186.791617 406,189.5 C406,192.151712 405.441785,194.437426 404.325355,196.359504 C403.746294,197.338253 402.955296,198.108028 401.953521,198.664109 C400.951745,199.22137 399.782041,199.5 398.443252,199.5 C397.103305,199.5 395.941708,199.22137 394.95962,198.664109 C393.977532,198.108028 393.205065,197.348878 392.64685,196.390201 C391.547792,194.505903 391,192.209563 391,189.5 C391,186.810508 391.568638,184.514168 392.704756,182.614522 C393.264129,181.651122 394.040071,180.894333 395.031424,180.337072" id="Fill-49" fill="#163380" mask="url(#mask-4)"></path>
                <path d="M432.923015,183.822949 C432.923015,183.424445 432.932414,183.025941 432.951212,182.629768 L427.613777,196.422421 L425.386223,196.422421 L420.049963,182.629768 C420.068761,183.025941 420.079335,183.424445 420.079335,183.822949 C420.079335,184.221452 420.068761,184.619956 420.049963,185.016129 L419.58119,198.5 L417,198.5 L417.909349,179.5 L421.16374,179.5 L426.5,193.580461 L431.837435,179.5 L435.091825,179.5 L436,198.5 L433.42116,198.5 L432.951212,185.016129 C432.932414,184.619956 432.923015,184.221452 432.923015,183.822949" id="Fill-50" fill="#163380" mask="url(#mask-4)"></path>
                <path d="M451.946576,194.948642 C452.705088,196.350059 453.886281,197.050177 455.487841,197.050177 C457.084768,197.050177 458.264804,196.350059 459.025631,194.948642 C459.786459,193.546045 460.167452,191.725502 460.167452,189.485832 C460.167452,187.248524 459.786459,185.431523 459.025631,184.040732 C458.264804,182.646399 457.084768,181.949823 455.487841,181.949823 C453.886281,181.949823 452.705088,182.646399 451.946576,184.040732 C451.18459,185.431523 450.804756,187.248524 450.804756,189.485832 C450.804756,191.725502 451.18459,193.546045 451.946576,194.948642 M452.032271,180.337072 C453.025863,179.77863 454.186212,179.5 455.514475,179.5 C456.843897,179.5 458.008878,179.77863 459.012893,180.337072 C460.014591,180.894333 460.795105,181.651122 461.352119,182.614522 C462.448776,184.495277 463,186.791617 463,189.5 C463,192.151712 462.441828,194.437426 461.323168,196.359504 C460.746468,197.338253 459.955532,198.108028 458.953833,198.664109 C457.952135,199.22137 456.781363,199.5 455.442677,199.5 C454.102833,199.5 452.942484,199.22137 451.960472,198.664109 C450.977303,198.108028 450.206053,197.348878 449.647881,196.390201 C448.550066,194.505903 448,192.209563 448,189.5 C448,186.810508 448.568594,184.514168 449.705782,182.614522 C450.265112,181.651122 451.038678,180.894333 452.032271,180.337072" id="Fill-51" fill="#163380" mask="url(#mask-4)"></path>
                <path d="M479.654101,196.197535 C482.562417,196.197535 484.016575,195.077763 484.016575,192.839384 C484.016575,191.702134 483.606554,190.83871 482.788975,190.250276 C482.132696,189.644364 480.964198,189.341408 479.284713,189.341408 L476.948949,189.341408 L476.948949,196.197535 L479.654101,196.197535 Z M476.948949,181.548448 L476.948949,187.235864 L479.961925,187.235864 C480.863232,187.178769 481.558913,186.89096 482.05143,186.368944 C482.542716,185.848093 482.788975,185.231694 482.788975,184.520913 C482.788975,183.808966 482.711404,183.282289 482.557492,182.942046 C482.40358,182.600638 482.220117,182.336134 482.004641,182.146204 C481.790396,181.956274 481.467797,181.814118 481.036844,181.71857 C480.381796,181.605544 479.500189,181.548448 478.394488,181.548448 L476.948949,181.548448 Z M485.769937,184.306513 C485.769937,186.070649 484.979447,187.340733 483.403391,188.117932 C484.712256,188.573531 485.640652,189.184104 486.184884,189.954311 C486.725421,190.721023 487,191.720778 487,192.953575 C487,194.678094 486.436067,196.03557 485.309434,197.020177 C484.1828,198.007114 482.491002,198.5 480.238966,198.5 L474,198.5 L474,179.5 L477.778841,179.5 C478.987971,179.5 479.869578,179.511652 480.422428,179.52913 C483.987024,179.642156 485.769937,181.235006 485.769937,184.306513 L485.769937,184.306513 Z" id="Fill-52" fill="#163380" mask="url(#mask-4)"></path>
                <polygon id="Fill-53" fill="#163380" mask="url(#mask-4)" points="498 198.5 501 198.5 501 179.5 498 179.5"></polygon>
                <polygon id="Fill-54" fill="#163380" mask="url(#mask-4)" points="516.774433 196.197535 524 196.197535 524 198.5 514 198.5 514 179.5 516.774433 179.5"></polygon>
                <polygon id="Fill-55" fill="#163380" mask="url(#mask-4)" points="536.778996 196.197535 545 196.197535 545 198.5 534 198.5 534 179.5 544.739034 179.5 544.739034 181.803631 536.778996 181.803631 536.778996 187.549307 544.275095 187.549307 544.275095 189.795842 536.778996 189.795842"></polygon>
                <polygon id="Fill-56" fill="#163380" mask="url(#mask-4)" points="578.955092 180.922728 582.046077 180.922728 586.362938 195.371397 588.462938 179.5 591 179.5 588.403339 198.5 584.933723 198.5 580.529215 183.196063 576.095492 198.5 572.59783 198.5 570 179.5 572.53823 179.5 574.63823 195.371397"></polygon>
                <polygon id="Fill-57" fill="#163380" mask="url(#mask-4)" points="605.779289 196.197535 614 196.197535 614 198.5 603 198.5 603 179.5 613.740167 179.5 613.740167 181.803631 605.779289 181.803631 605.779289 187.549307 613.277338 187.549307 613.277338 189.795842 605.779289 189.795842"></polygon>
                <path d="M630.655332,196.197535 C633.563648,196.197535 635.019038,195.077763 635.019038,192.839384 C635.019038,191.702134 634.609017,190.83871 633.790206,190.250276 C633.133927,189.644364 631.965429,189.341408 630.287176,189.341408 L627.951411,189.341408 L627.951411,196.197535 L630.655332,196.197535 Z M627.951411,181.548448 L627.951411,187.235864 L630.961925,187.235864 C631.864463,187.178769 632.561375,186.89096 633.052661,186.368944 C633.543948,185.848093 633.790206,185.231694 633.790206,184.520913 C633.790206,183.808966 633.711404,183.282289 633.558723,182.942046 C633.406043,182.600638 633.221349,182.336134 633.005872,182.146204 C632.790396,181.956274 632.469028,181.814118 632.038075,181.71857 C631.381796,181.605544 630.501421,181.548448 629.395719,181.548448 L627.951411,181.548448 Z M636.769937,184.306513 C636.769937,186.070649 635.981909,187.340733 634.404622,188.117932 C635.713487,188.573531 636.643114,189.184104 637.186115,189.954311 C637.727884,190.721023 638,191.720778 638,192.953575 C638,194.678094 637.436067,196.03557 636.309434,197.020177 C635.1828,198.007114 633.492233,198.5 631.238966,198.5 L625,198.5 L625,179.5 L628.781303,179.5 C629.989203,179.5 630.870809,179.511652 631.422428,179.52913 C634.989487,179.642156 636.769937,181.235006 636.769937,184.306513 L636.769937,184.306513 Z" id="Fill-58" fill="#163380" mask="url(#mask-4)"></path>
                <path d="M660,194.096222 C660,195.661747 659.435184,196.955726 658.309054,197.972255 C657.182923,198.991145 655.697365,199.5 653.853545,199.5 C652.865117,199.5 651.810172,199.394923 650.693377,199.183589 C649.576583,198.972255 648.679179,198.70307 648,198.376033 L648.7562,195.927391 C650.659535,196.677096 652.241953,197.050177 653.504619,197.050177 C654.767286,197.050177 655.717203,196.77745 656.360206,196.228453 C656.999708,195.681818 657.320626,194.986423 657.320626,194.141086 C657.320626,193.294569 656.970534,192.5732 656.272683,191.978158 C655.572498,191.383117 654.663425,190.811688 653.548964,190.263872 C652.431003,189.716057 651.679471,189.327627 651.290868,189.097403 C650.902266,188.864817 650.456482,188.520071 649.951182,188.058442 C648.980259,187.233176 648.495964,186.041913 648.495964,184.484652 C648.495964,182.930933 649.047943,181.710153 650.154235,180.825856 C651.261694,179.94392 652.616552,179.5 654.217641,179.5 C655.819897,179.5 657.465331,179.806966 659.15511,180.422078 L658.396577,182.727863 C656.920354,182.209563 655.614509,181.949823 654.48021,181.949823 C653.344744,181.949823 652.50919,182.175325 651.974716,182.626328 C651.441408,183.078512 651.174171,183.670012 651.174171,184.399646 C651.174171,185.12928 651.484586,185.749115 652.106584,186.257969 C652.728581,186.768005 653.543129,187.285124 654.552562,187.81523 C655.561996,188.342975 656.304191,188.75974 656.780317,189.067887 C657.255276,189.374852 657.775746,189.769185 658.338228,190.249705 C659.445687,191.248524 660,192.531877 660,194.096222" id="Fill-59" fill="#163380" mask="url(#mask-4)"></path>
                <polygon id="Fill-60" fill="#163380" mask="url(#mask-4)" points="671 198.5 674 198.5 674 179.5 671 179.5"></polygon>
                <polygon id="Fill-61" fill="#163380" mask="url(#mask-4)" points="690.108529 181.919135 685 181.919135 685 179.5 698 179.5 698 181.919135 692.893823 181.919135 692.893823 198.5 690.108529 198.5"></polygon>
                <polygon id="Fill-62" fill="#163380" mask="url(#mask-4)" points="710.778996 196.197535 719 196.197535 719 198.5 708 198.5 708 179.5 718.739034 179.5 718.739034 181.803631 710.778996 181.803631 710.778996 187.549307 718.276255 187.549307 718.276255 189.795842 710.778996 189.795842"></polygon>
                <path d="M618.502386,159.738378 C607.049118,159.738378 597.757654,150.453445 597.757654,138.992245 C597.757654,127.540589 607.049118,118.254463 618.502386,118.254463 C629.955655,118.254463 639.244733,127.540589 639.244733,138.992245 C639.244733,150.453445 629.955655,159.738378 618.502386,159.738378 M618.502386,112.5 C603.86487,112.5 592,124.363285 592,138.992245 C592,153.628363 603.86487,165.5 618.502386,165.5 C633.136323,165.5 645,153.628363 645,138.992245 C645,124.363285 633.136323,112.5 618.502386,112.5" id="Fill-63" fill="#E7232D" mask="url(#mask-4)"></path>
                <path d="M629.113669,154.510436 C631.358027,151.557307 625.092282,143.269378 624.230979,142.153672 C624.388333,141.861436 624.535038,141.544353 624.652166,141.224904 C630.662359,139.504611 636.588551,143.076525 636.818074,143.218503 C635.744995,147.882459 632.941027,151.885038 629.113669,154.510436 M614.703404,157.410324 C618.282308,156.692155 619.883054,146.654355 620.075901,145.350529 C620.409538,145.268892 620.73016,145.162409 621.042501,145.028714 C626.54514,148.243318 628.02166,155.200209 628.02166,155.200209 L628.692483,154.790841 C625.756007,156.692155 622.254004,157.796029 618.497634,157.796029 C617.20213,157.796029 615.929104,157.66115 614.703404,157.410324 M602.694849,149.180369 C605.977976,150.90776 614.415908,144.922231 614.984984,144.515229 C615.229887,144.679686 615.496087,144.820481 615.768202,144.947077 C617.238806,150.842687 613.708409,156.473273 613.317983,157.071944 C608.891973,155.805979 605.135602,152.962883 602.694849,149.180369 M600.159447,134.847754 C601.501092,138.429133 612.008282,140.330446 612.008282,140.330446 L612.044958,140.089085 C612.105297,140.423915 612.184565,140.74573 612.283946,141.060447 C609.212596,146.08053 603.024936,147.549995 601.876138,147.780709 C600.487168,145.162409 599.699217,142.16787 599.699217,138.995859 C599.699217,137.576085 599.862486,136.184707 600.159447,134.847754 M608.682563,122.970164 C607.084183,126.435594 612.937022,135.278418 612.937022,135.278418 L613.302603,135.022859 C613.052967,135.345857 612.840007,135.688969 612.656625,136.048645 L612.667273,135.968192 C607.023844,137.237706 601.768475,133.95093 600.623225,133.168871 C602.019294,128.889437 604.911995,125.282028 608.682563,122.970164 M623.298689,120.823939 C619.621587,121.855641 617.228158,132.453069 617.228158,132.453069 L617.566527,132.522874 C617.205679,132.572566 616.847197,132.65302 616.504095,132.765419 L616.54787,132.738206 C611.736167,129.550815 610.466691,123.49548 610.233618,122.115933 C612.726429,120.887829 615.532763,120.202788 618.497634,120.202788 C620.157535,120.202788 621.771296,120.419303 623.298689,120.823939 M633.87095,128.184282 C630.493174,126.31728 621.599745,133.192534 621.599745,133.192534 L621.67783,133.282453 C621.632872,133.25879 621.59028,133.233944 621.544139,133.209098 C620.549145,127.446 624.186021,122.295771 624.914816,121.325592 C628.557608,122.653081 631.6751,125.067879 633.87095,128.184282 M623.501001,138.838501 C622.952039,139.059749 622.317892,138.793541 622.099017,138.23628 C621.87541,137.682568 622.143975,137.057868 622.698853,136.835437 C623.250182,136.613005 623.878413,136.880396 624.10202,137.437657 C624.323262,137.991369 624.055879,138.617253 623.501001,138.838501 M619.930379,143.639702 C619.555333,143.169994 619.632235,142.486136 620.092465,142.112262 C620.559793,141.740755 621.236531,141.816476 621.613942,142.276719 C621.986622,142.744062 621.915635,143.423187 621.454223,143.794694 C620.988078,144.170934 620.310157,144.101129 619.930379,143.639702 M614.595741,143.125034 C614.095286,142.79257 613.966327,142.116995 614.299964,141.627173 C614.632417,141.127886 615.306789,141.002472 615.800146,141.336119 C616.299418,141.670949 616.428376,142.341792 616.095923,142.836347 C615.758737,143.328535 615.081999,143.46223 614.595741,143.125034 M614.577994,135.653475 C615.139971,135.828581 615.46296,136.430801 615.287859,137.003443 C615.113942,137.576085 614.510557,137.900267 613.940299,137.722795 C613.371223,137.545324 613.049418,136.93837 613.225701,136.364545 C613.399618,135.800185 614.004186,135.477187 614.577994,135.653475 M618.497634,136.904059 C619.651165,136.904059 620.596469,137.838743 620.596469,138.995859 C620.596469,140.15889 619.651165,141.095941 618.497634,141.095941 C617.340553,141.095941 616.398799,140.15889 616.398799,138.995859 C616.398799,137.838743 617.340553,136.904059 618.497634,136.904059 M619.279669,133.081318 C619.883054,133.081318 620.359847,133.565225 620.359847,134.163896 C620.359847,134.760201 619.883054,135.244107 619.279669,135.244107 C618.684565,135.244107 618.197124,134.760201 618.197124,134.163896 C618.197124,133.565225 618.684565,133.081318 619.279669,133.081318 M624.705406,136.928905 C624.64625,136.749067 624.582363,136.581061 624.506644,136.413054 C627.533036,131.268741 633.824809,129.691609 634.709774,129.488108 C636.344831,132.283879 637.291318,135.526879 637.291318,138.995859 C637.291318,139.977869 637.220331,140.942132 637.073626,141.885098 C636.355479,138.19487 625.702767,137.025923 624.705406,136.928905 M618.497634,119.5 C607.73371,119.5 599,128.229242 599,138.995859 C599,149.771941 607.73371,158.5 618.497634,158.5 C629.267474,158.5 638,149.771941 638,138.995859 C638,128.229242 629.267474,119.5 618.497634,119.5" id="Fill-64" fill="#E7232D" mask="url(#mask-4)"></path>
            </g>
        </g>
    </g>
</svg>